<?xml version="1.0" encoding="utf-8"?>
<!-- Generator: Adobe Illustrator 20.1.0, SVG Export Plug-In . SVG Version: 6.00 Build 0)  -->
<svg version="1.1" xmlns="http://www.w3.org/2000/svg" xmlns:xlink="http://www.w3.org/1999/xlink" x="0px" y="0px"
	 viewBox="0 0 1600 900" style="enable-background:new 0 0 1600 900;" xml:space="preserve">
<style type="text/css">
	.st0{fill:#493389;stroke:#A8A8A8;stroke-miterlimit:10;}
	.st1{fill:#0E6F97;stroke:#FFFFFF;stroke-miterlimit:10;}
	.st2{fill:#575757;}
	.st3{fill:#686969;}
	.st4{fill:#4FC7F3;}
	.st5{fill:#55C7F2;}
	.st6{fill:none;stroke:#55C7F2;stroke-width:3;stroke-miterlimit:10;}
	.st7{fill:#4EBFB6;}
	.st8{fill:#4FC7F3;stroke:#55C7F2;stroke-width:8;stroke-linecap:round;stroke-linejoin:round;stroke-miterlimit:10;}
	.st9{fill:#FFFFFF;}
	.st10{font-family:'Overpass-Bold';}
	.st11{font-size:30.6258px;}
	.st12{font-size:23.9853px;}
	.st13{font-size:27.0516px;}
	.st14{fill:none;stroke:#FFFFFF;stroke-miterlimit:10;}
	.st15{fill:#4FC7F3;stroke:#55C7F2;stroke-width:5;stroke-linecap:round;stroke-linejoin:round;stroke-miterlimit:10;}
	.st16{fill:#4FC7F3;stroke:#55C7F2;stroke-width:2;stroke-linecap:round;stroke-linejoin:round;stroke-miterlimit:10;}
	.st17{fill:none;stroke:#56C7F2;stroke-width:3;stroke-miterlimit:10;}
	.st18{clip-path:url(#SVGID_2_);}
	.st19{fill:#8C8C8C;}
	.st20{fill:#F05E5C;}
	.st21{fill:#A3CE5E;}
	.st22{fill:#F29721;}
	.st23{opacity:0.6;fill:none;stroke:#FFFFFF;stroke-width:2;stroke-miterlimit:10;}
	.st24{fill:#5C6670;}
	.st25{fill:#9AA0A6;}
	.st26{fill:#FF9012;}
	.st27{fill:#E94F3D;}
	.st28{fill:#05CE7C;}
	.st29{fill:#40A4E1;}
	.st30{fill:#FFBF3B;}
	.st31{fill:#9778D3;}
	.st32{fill:#9B9B9F;}
	.st33{fill:#01B8EB;}
	.st34{fill:#7BC043;}
	.st35{font-family:'CiscoSansLight';}
	.st36{font-size:18.3311px;}
	.st37{fill:none;stroke:#FFFFFF;stroke-width:5;stroke-miterlimit:10;}
	.st38{fill:#ED2D2C;}
	.st39{fill:#2B7EC1;}
	.st40{display:none;}
	.st41{display:inline;fill:#5E5E5E;}
</style>
<g id="Layer_3">
</g>
<g id="Layer_1">
	<rect x="-10.4" y="-8.6" class="st0" width="1619.2" height="917.4"/>
</g>
<g id="Layer_2">
	<g>
		<path class="st1" d="M61.3,70.1v259.4h292v-60.5h43.9v93.8l-28,28l41.6,146l-18.2,16.6l28.3,68.9l-139.7,68.4l47.1,98.7
			l109.4-50.1l39.5,53.2h246.1L604.8,537.3l88.1-39.5l126.1,287.1l158-39.5v-69.9h104.8v56.2c0,0,117-48.6,205.1-151.9L1267,560
			c0,0,94.2-85.1,129.1-264.3l-744.3,91.1c0,0-6.8-22-34.9-21.2s-32.3,29-32.3,29l-43,4.1L382.4,69.9L61.3,70.1z"/>
		<polygon class="st2" points="353.3,268.9 397.2,268.9 397.2,362.7 369.2,390.7 410.8,536.7 392.6,553.4 421,622.3 281.2,690.7 
			328.3,789.4 437.7,739.3 477.2,792.5 723.2,792.5 604.8,537.3 541.6,398.8 382.4,69.9 350.6,70 		"/>
		<polygon class="st3" points="1022.2,458.7 1012.9,387.4 874.5,405.5 883.9,476.8 884.2,476.8 884.8,481.1 968.4,482.5 
			968.4,465.8 		"/>
		<circle class="st4" cx="644.2" cy="304.1" r="8.3"/>
		<circle class="st5" cx="842" cy="215" r="8.3"/>
		<circle class="st5" cx="971.9" cy="290.1" r="8.3"/>
		<circle class="st5" cx="1140.8" cy="215.3" r="8.3"/>
		<line class="st6" x1="643.6" y1="304.1" x2="473.8" y2="304.1"/>
		<line class="st6" x1="586.3" y1="476.6" x2="90.4" y2="476.6"/>
		<circle class="st4" cx="90.1" cy="476.5" r="8.3"/>
		<circle class="st5" cx="1015" cy="828.7" r="8.3"/>
		<circle class="st5" cx="1164.9" cy="806.8" r="8.3"/>
		<circle class="st5" cx="1347.5" cy="711.2" r="8.3"/>
		<circle class="st5" cx="1383.1" cy="214.5" r="8.3"/>
		<rect x="63.3" y="72.1" class="st4" width="288.9" height="255.6"/>
		
			<rect x="297.1" y="649.3" transform="matrix(0.9012 -0.4334 0.4334 0.9012 -268.9817 232.6517)" class="st4" width="157.2" height="113.8"/>
		
			<rect x="441.8" y="290.7" transform="matrix(0.4118 0.9113 -0.9113 0.4118 546.498 -246.748)" class="st4" width="45.2" height="18.5"/>
		
			<rect x="457.2" y="357.6" transform="matrix(0.4118 0.9113 -0.9113 0.4118 625.491 -235.4205)" class="st4" width="75.8" height="18.5"/>
		
			<rect x="753.5" y="608.9" transform="matrix(0.9136 -0.4067 0.4067 0.9136 -187.8708 372.8086)" class="st7" width="59.2" height="39"/>
		
			<rect x="925.6" y="695" transform="matrix(1.155971e-02 -0.9999 0.9999 1.155971e-02 229.7238 1661.3088)" class="st7" width="59.2" height="39"/>
		
			<rect x="898.3" y="492" transform="matrix(1.155971e-02 -0.9999 0.9999 1.155971e-02 405.6979 1433.3322)" class="st7" width="59.2" height="39"/>
		
			<rect x="1041" y="588.8" transform="matrix(1.155971e-02 -0.9999 0.9999 1.155971e-02 449.9025 1671.7507)" class="st7" width="59.2" height="39"/>
		
			<rect x="1211.9" y="367.9" transform="matrix(-0.1344 -0.9909 0.9909 -0.1344 1024.4751 1669.7094)" class="st7" width="59.2" height="39"/>
		
			<rect x="1074.8" y="461.8" transform="matrix(-0.3969 -0.9179 0.9179 -0.3969 1100.9818 1685.9604)" class="st7" width="59.2" height="39"/>
		
			<rect x="1235.2" y="497.3" transform="matrix(0.6636 -0.7481 0.7481 0.6636 38.9197 1120.02)" class="st7" width="59.2" height="39"/>
		
			<rect x="818.8" y="713.5" transform="matrix(0.4454 -0.8953 0.8953 0.4454 -185.6947 1166.1144)" class="st7" width="59.2" height="39"/>
		<g>
			<polygon class="st8" points="1190.8,472.6 1156.7,438.5 1202.9,428.2 			"/>
			<polygon class="st8" points="1021.2,567.1 978.6,544.6 1019.7,521.1 			"/>
			
				<rect x="724.2" y="485.5" transform="matrix(0.9032 -0.4292 0.4292 0.9032 -140.6353 371.7106)" class="st8" width="59.3" height="24.3"/>
			
				<rect x="791.4" y="453.4" transform="matrix(0.9032 -0.4292 0.4292 0.9032 -120.3474 397.4378)" class="st8" width="59.3" height="24.3"/>
			
				<rect x="961.4" y="466.7" transform="matrix(0.9899 -0.1418 0.1418 0.9899 -57.9006 145.3817)" class="st8" width="59.3" height="24.3"/>
		</g>
		<path class="st3" d="M1082.5,649.4v82.3c0,0,91-47.4,119.8-72.1c0,0,70.1-57.9,84.4-79.8l-54.2-51.6
			C1232.6,528.2,1184.1,586.5,1082.5,649.4z"/>
		<text transform="matrix(1 0 0 1 84.6259 168.4503)" class="st9 st10 st11">Hahn Auditorium</text>
		<text transform="matrix(1 0 0 1 318.0507 700.5524)"><tspan x="0" y="0" class="st9 st10 st12">Boole</tspan><tspan x="0" y="29.5" class="st9 st10 st12">Classroom</tspan></text>
		<text transform="matrix(1 0 0 1 524.6533 290.3507)" class="st9 st10 st12">Check In</text>
		<text transform="matrix(1 0 0 1 906.1318 816.6705)" class="st9 st10 st12">Sandbox</text>
		<text transform="matrix(1 -8.930001e-03 8.930001e-03 1 1230.7986 668.6296)"><tspan x="0" y="0" class="st9 st10 st12">Design </tspan><tspan x="0" y="29.5" class="st9 st10 st12">Thinking</tspan></text>
		<text transform="matrix(1 -8.930001e-03 8.930001e-03 1 1201.3217 248.8971)"><tspan x="0" y="0" class="st9 st10 st12">DevNet Meraki </tspan><tspan x="0" y="29.5" class="st9 st10 st12">Challenge</tspan></text>
		<text transform="matrix(1 0 0 1 84.6259 236.5421)"><tspan x="0" y="0" class="st9 st10 st13">Keynote</tspan><tspan x="0" y="33.1" class="st9 st10 st13">Tech Talks</tspan></text>
		<line class="st14" x1="85.8" y1="198.5" x2="213.8" y2="198.5"/>
		<polygon class="st3" points="1172.8,393 1155.9,353.6 1092.6,380.8 1088.8,371.8 1033.8,395.4 1064.3,466.2 1119.2,442.5 
			1109.6,420.2 		"/>
		
			<rect x="1307.5" y="355.5" transform="matrix(-0.866 -0.5 0.5 -0.866 2293.2373 1368.6049)" class="st15" width="45" height="43.1"/>
		
			<rect x="1163.6" y="517.4" transform="matrix(0.7322 -0.681 0.681 0.7322 -45.3374 956.1016)" class="st16" width="59.3" height="36.7"/>
		
			<rect x="579.4" y="470.7" transform="matrix(-0.4073 -0.9133 0.9133 -0.4073 407.5764 1248.9)" class="st4" width="59.3" height="43.1"/>
		<g>
			<path class="st4" d="M872,614.3c0.4-10.8,9.2-19.4,20.1-19.5v-10.8c-16.8,0-30.5,13.5-30.9,30.2H872z"/>
			<path class="st4" d="M894.9,595.1c9.6,1.3,17,9.3,17.3,19.2h10.8c-0.4-15.8-12.6-28.7-28.1-30.1V595.1z"/>
			<path class="st4" d="M892.1,635.3c-10.5,0-19-8-20-18.2h-10.9c1.1,16.1,14.4,28.9,30.9,28.9V635.3z"/>
			<path class="st4" d="M912.1,617.1c-0.9,9.3-8.1,16.6-17.2,17.9v10.9c15.1-1.4,27.1-13.6,28.1-28.8H912.1z"/>
		</g>
		<text transform="matrix(1 0 0 1 105.5654 429.8018)"><tspan x="0" y="0" class="st9 st10 st12">Black Hat / White Hat </tspan><tspan x="0" y="29.5" class="st9 st10 st12">Challenge &amp; Mini-Hacks</tspan></text>
		<polyline class="st17" points="894.9,635 894.9,829.2 1013.7,829.2 		"/>
		<polyline class="st6" points="1023,554.3 1023,806.1 1161.8,806.1 		"/>
		<polyline class="st17" points="1213.9,523.5 1213.9,711.4 1344.1,711.4 		"/>
		<polyline class="st6" points="1184.3,441.2 1184.3,214.8 1383.2,214.8 		"/>
		<polyline class="st6" points="723.4,498.4 723.8,214.2 840.2,214.4 		"/>
		<polyline class="st6" points="834.1,469 834.1,290 965,290 		"/>
		<polyline class="st6" points="1007.9,468.2 1007.9,214.7 1139.4,214.7 		"/>
		<circle class="st5" cx="1519.8" cy="369.8" r="8.3"/>
		<line class="st6" x1="1519.2" y1="369.8" x2="1349.4" y2="369.8"/>
		<text transform="matrix(1 0 0 1 1400.202 356.131)" class="st9 st10 st12">The Cube</text>
	</g>
	<g>
		<g>
			<path class="st9" d="M1445.5,819.2c-0.8,3.3-2.2,5.8-4.3,7.6c-2.2,1.7-4.8,2.6-7.7,2.6c-2.7-0.1-4.9-0.7-6.7-2
				c-1.8-1.2-3.2-2.7-4-4.3c-0.3-0.5-0.5-1-0.7-1.5c-0.2-0.5-0.3-1.1-0.5-1.9c-0.2-1.4-0.4-4.2-0.4-8.2c0-4.1,0.1-6.9,0.4-8.3
				c0.3-1.4,0.6-2.5,1.2-3.4c0.8-1.6,2.2-3.1,4-4.4c1.8-1.3,4.1-2,6.8-2c3.3,0,6,1,8.1,3c2.1,2,3.4,4.5,4,7.4h-5.5
				c-0.4-1.4-1.2-2.6-2.3-3.7c-1.2-1-2.6-1.5-4.2-1.5c-1.2,0-2.3,0.3-3.2,0.8c-0.9,0.5-1.6,1.1-2.2,1.8c-0.7,0.8-1.1,1.7-1.3,2.9
				c-0.3,1.3-0.4,3.6-0.4,7.1c0,3.5,0.1,5.8,0.4,7.1c0.2,1.2,0.7,2.2,1.3,3c0.5,0.7,1.3,1.3,2.2,1.8c0.9,0.5,1.9,0.8,3.2,0.8
				c2.9,0,5.1-1.6,6.6-4.8H1445.5z"/>
			<path class="st9" d="M1449.6,803.8h4.9v2.7h0.1c1.6-2,3.7-3,6.4-3c2,0,3.7,0.7,5.1,1.9l-3.6,4.4c-1-0.8-2.1-1.3-3.2-1.3
				c-1.3,0-2.3,0.4-3.2,1.3c-1,0.8-1.5,2.2-1.6,4V829h-4.9V803.8z"/>
			<path class="st9" d="M1471.8,818.4c0,2,0.6,3.6,1.7,4.6c1.1,1.1,2.4,1.6,4.1,1.6c2,0,3.8-0.8,5.3-2.5l3.6,3.1
				c-2.5,2.8-5.4,4.1-8.8,4.1c-1.3,0-2.5-0.2-3.8-0.6c-0.6-0.2-1.2-0.5-1.8-0.8c-0.6-0.3-1.2-0.7-1.7-1.1c-1-0.9-1.9-2.2-2.5-3.9
				c-0.7-1.6-1.1-3.7-1.1-6.3c0-2.5,0.3-4.6,0.9-6.2c0.6-1.7,1.4-3,2.4-4c1-1,2.1-1.7,3.3-2.1c1.2-0.4,2.4-0.7,3.5-0.7
				c2.8,0,5.1,1,7.1,2.8c2,1.9,3,4.5,3,7.8v4.2H1471.8z M1482.1,814.2c-0.1-2-0.6-3.5-1.5-4.5c-0.9-1-2.2-1.4-3.6-1.4
				c-1.5,0-2.7,0.5-3.6,1.4c-0.9,1-1.4,2.5-1.5,4.5H1482.1z"/>
			<path class="st9" d="M1505.1,826.8L1505.1,826.8c-0.5,0.9-1.3,1.5-2.2,1.9c-0.9,0.4-2.2,0.6-3.9,0.6c-2.7,0-4.8-0.8-6.3-2.2
				c-1.6-1.4-2.3-3.2-2.3-5.5c0-2.1,0.7-3.9,2-5.3c1.3-1.4,3.3-2.2,5.9-2.2h6.8v-2.7c0-2.2-1.6-3.3-5-3.2c-1.2,0-2.2,0.1-2.9,0.4
				c-0.7,0.3-1.3,0.8-1.7,1.6l-3.9-3c1.9-2.5,4.6-3.7,8.2-3.7c3.1,0,5.5,0.6,7.4,1.8c1.8,1.3,2.8,3.4,2.8,6.5V829h-4.9V826.8z
				 M1505.1,818.4h-5.9c-2.9,0.1-4.3,1.1-4.2,3c0,0.9,0.4,1.6,1.1,2.2c0.7,0.7,1.9,1,3.5,1c2.1,0,3.5-0.2,4.4-0.8
				c0.8-0.5,1.2-1.7,1.2-3.6V818.4z"/>
			<path class="st9" d="M1516.5,796.2h4.9v7.7h3.6v3.9h-3.6v14.7c0,1.3,0.5,1.9,1.7,1.9h1.8v4.8h-2.6c-1.7,0-3.1-0.5-4.2-1.6
				c-1.1-1.1-1.7-2.6-1.7-4.6v-15.1h-2.5v-3.9h2.5V796.2z"/>
			<path class="st9" d="M1533.1,818.4c0,2,0.6,3.6,1.7,4.6c1.1,1.1,2.4,1.6,4.1,1.6c2,0,3.8-0.8,5.3-2.5l3.6,3.1
				c-2.5,2.8-5.4,4.1-8.8,4.1c-1.3,0-2.5-0.2-3.8-0.6c-0.6-0.2-1.2-0.5-1.8-0.8c-0.6-0.3-1.2-0.7-1.7-1.1c-1-0.9-1.9-2.2-2.5-3.9
				c-0.7-1.6-1.1-3.7-1.1-6.3c0-2.5,0.3-4.6,0.9-6.2c0.6-1.7,1.4-3,2.4-4c1-1,2.1-1.7,3.3-2.1c1.2-0.4,2.4-0.7,3.5-0.7
				c2.8,0,5.1,1,7.1,2.8c2,1.9,3,4.5,3,7.8v4.2H1533.1z M1543.4,814.2c-0.1-2-0.6-3.5-1.5-4.5c-0.9-1-2.2-1.4-3.6-1.4
				c-1.5,0-2.7,0.5-3.6,1.4c-0.9,1-1.4,2.5-1.5,4.5H1543.4z"/>
		</g>
		<g>
			<polygon class="st9" points="1562.8,844.7 1405.9,844.7 1405.9,780.8 1414.3,780.8 1414.3,783.9 1409,783.9 1409,841.5 
				1559.6,841.5 1559.6,783.9 1506.3,783.9 1506.3,780.8 1562.8,780.8 			"/>
		</g>
		<g>
			<g>
				<defs>
					<path id="SVGID_1_" d="M1421.7,767.1V784h5.8c4.8,0,7.6-2.5,7.6-8.4c0-5.8-2.7-8.4-7.7-8.4H1421.7z M1427.4,770.6
						c2.7,0,4.4,1.5,4.4,5c0,3.5-1.7,4.8-4.3,4.8h-2.4v-9.8H1427.4z M1488.9,774.2h-5.6v-3.7h7.3v-3.4h-10.7V784l10.7,0v-3.2l-7.3,0
						v-3.4h5.6V774.2z M1459.5,767.1l-3.5,8.8l-3.5-8.8h-3.7l6.7,16.9h0.9l6.6-16.9H1459.5z M1474.2,767.1l0,9.4l-8.9-9.4h-0.6V784
						h3.4v-8.8l9,8.8h0.6v-16.9H1474.2z M1503.8,767.1h-11.3v3.4h4l0,13.5h3.2l0-13.5h4.1V767.1z M1445.9,774.2h-5.6v-3.7h7.3v-3.4
						h-10.7V784l10.7,0v-3.2l-7.3,0v-3.4h5.6V774.2z"/>
				</defs>
				<use xlink:href="#SVGID_1_"  style="overflow:visible;fill-rule:evenodd;clip-rule:evenodd;fill:#FFFFFF;"/>
				<clipPath id="SVGID_2_">
					<use xlink:href="#SVGID_1_"  style="overflow:visible;"/>
				</clipPath>
				<g class="st18">
					<defs>
						<rect id="SVGID_3_" x="1421.7" y="767.1" width="82" height="16.9"/>
					</defs>
					<use xlink:href="#SVGID_3_"  style="overflow:visible;fill:#FFFFFF;"/>
					<clipPath id="SVGID_4_">
						<use xlink:href="#SVGID_3_"  style="overflow:visible;"/>
					</clipPath>
				</g>
			</g>
		</g>
	</g>
	<g>
		<g>
			<circle class="st19" cx="1107.6" cy="116" r="10.6"/>
			<text transform="matrix(1 0 0 1 1136.8134 124.9063)" class="st9 st10 st12">Empty</text>
		</g>
		<g>
			<circle class="st20" cx="1107.6" cy="83" r="10.6"/>
			<text transform="matrix(1 0 0 1 1136.8134 91.8927)" class="st9 st10 st12">Standby</text>
		</g>
	</g>
	<g>
		<g>
			<circle class="st21" cx="1300" cy="116" r="10.6"/>
			<text transform="matrix(1 0 0 1 1329.1981 124.9063)" class="st9 st10 st12">High Attendance</text>
		</g>
		<g>
			<circle class="st22" cx="1300" cy="83" r="10.6"/>
			<text transform="matrix(1 0 0 1 1329.1981 91.8927)" class="st9 st10 st12">Low Attendance</text>
		</g>
	</g>
	<path class="st23" d="M1557.7,144.5h-499.5c-1.5,0-2.8-1.2-2.8-2.8V54.2c0-1.5,1.2-2.8,2.8-2.8h499.5c1.5,0,2.8,1.2,2.8,2.8v87.5
		C1560.5,143.2,1559.2,144.5,1557.7,144.5z"/>
	<g>
		<path class="st9" d="M834.3,275.7h-94.9c-0.7,0-1.2-0.6-1.2-1.2V231c0-0.7,0.6-1.2,1.2-1.2h94.9c0.7,0,1.2,0.6,1.2,1.2v43.5
			C835.6,275.2,835,275.7,834.3,275.7z"/>
		<g>
			<g>
				<g>
					<g>
						<g>
							<path class="st24" d="M783.2,248.7c0-0.8,0.7-1.5,1.5-1.5h2.9c1.5,0,2.8,0.5,3.8,1.5c1,1,1.5,2.2,1.5,3.8v2.1
								c0,1.5-0.5,2.8-1.5,3.8c-1,1-2.3,1.5-3.8,1.5h-4.4V248.7z M785.7,257.8h1.9c0.8,0,1.5-0.3,2-0.9c0.5-0.6,0.8-1.4,0.8-2.4
								v-2.1c0-1-0.2-1.7-0.8-2.4c-0.5-0.6-1.2-0.9-2-0.9h-1.9V257.8z"/>
						</g>
						<path class="st24" d="M800.6,257.8c0.8,0,1.5,0.7,1.5,1.5v0.4h-8.7v-1.3l5.6-9.3h-4.1c-0.8,0-1.5-0.7-1.5-1.5v-0.4h8.6v1.3
							l-5.6,9.4H800.6z"/>
						<path class="st24" d="M802.4,255c0-1.4,0.4-2.5,1.2-3.4c0.8-0.9,1.9-1.3,3.2-1.3c1.4,0,2.5,0.4,3.2,1.3c0.8,0.9,1.2,2,1.2,3.4
							v0.2c0,1.4-0.4,2.5-1.2,3.4c-0.8,0.9-1.9,1.3-3.2,1.3s-2.5-0.4-3.2-1.3c-0.8-0.9-1.2-2-1.2-3.4V255z M804.9,255.2
							c0,1.7,0.6,2.8,1.9,2.8c1.3,0,1.9-1.1,1.9-2.8V255c0-1.6-0.6-2.8-1.9-2.8c-1.3,0-1.9,1.2-1.9,2.8V255.2z"/>
						<path class="st24" d="M814.9,251.8c0.6-0.9,1.6-1.5,2.7-1.5c1.9,0,3,1.2,3,3.8v5.7h-1c-0.8,0-1.5-0.7-1.5-1.5V254
							c0-1.3-0.5-1.8-1.4-1.8c-0.8,0-1.3,0.3-1.7,0.8v6.7h-2.5v-7.8c0-0.8,0.7-1.5,1.5-1.5h0.8L814.9,251.8z"/>
						<path class="st24" d="M823,258.7c-0.8-0.9-1.2-2-1.2-3.3V255c0-1.4,0.4-2.5,1.1-3.4c0.8-0.9,1.8-1.3,3.1-1.3
							c2.5,0,3.9,1.6,3.9,4.3v1.3h-5.6l0,0.1c0.1,1.3,0.8,2.2,2.1,2.2c0.6,0,1-0.1,1.5-0.2c0.7-0.2,1.5,0.1,1.8,0.8l0.1,0.2
							c-0.8,0.6-2.1,1.1-3.6,1.1C824.8,259.9,823.8,259.5,823,258.7z M824.4,254.1L824.4,254.1l3.1,0v-0.2c0-1.1-0.4-1.7-1.4-1.7
							C825,252.2,824.5,253,824.4,254.1z"/>
					</g>
				</g>
			</g>
			<g>
				<g>
					<path class="st25" d="M759.6,261.3l-11.2-2.8c0,0,0,0,0,0c-0.1,0-0.1,0-0.1,0.1c0,0.1,0,0.2,0.1,0.2l11.2,2.8c0,0,0,0,0,0
						c0.1,0,0.1,0,0.1-0.1C759.7,261.5,759.7,261.4,759.6,261.3C759.7,261.4,759.6,261.3,759.6,261.3z"/>
					<path class="st25" d="M762.5,242.4l12.1,3.3c0,0,0,0,0,0c0.1,0,0.1,0,0.1-0.1c0,0,0-0.1,0-0.1c0,0-0.1-0.1-0.1-0.1l-12.1-3.3
						c0,0,0,0,0,0c-0.1,0-0.1,0-0.2,0.1C762.4,242.3,762.5,242.4,762.5,242.4z"/>
					<path class="st25" d="M760.3,243c0,0,0-0.1-0.1-0.1c0,0-0.1,0-0.1,0c0,0-0.1,0-0.1,0.1l-12.3,14.1c-0.1,0.1,0,0.2,0,0.2
						c0,0,0.1,0,0.1,0c0,0,0.1,0,0.1-0.1l12.3-14.1C760.3,243.1,760.3,243.1,760.3,243z"/>
					<path class="st25" d="M776.8,248.7C776.7,248.7,776.7,248.7,776.8,248.7c-0.1,0-0.2,0-0.2,0.1l-1.9,6.7c0,0,0,0.1,0,0.1
						c0,0,0.1,0.1,0.1,0.1c0,0,0,0,0,0c0.1,0,0.1,0,0.1-0.1l1.9-6.7C776.9,248.8,776.8,248.7,776.8,248.7z"/>
					<path class="st25" d="M773.1,257.4C773.1,257.4,773.1,257.4,773.1,257.4l-8.6,3.6c-0.1,0-0.1,0.1-0.1,0.2
						c0,0.1,0.1,0.1,0.1,0.1c0,0,0,0,0.1,0l8.5-3.6c0,0,0.1,0,0.1-0.1c0,0,0-0.1,0-0.1C773.2,257.4,773.2,257.4,773.1,257.4z"/>
					<path class="st25" d="M771.1,252.9L771.1,252.9l4.4-4.7c0.1-0.1,0.1-0.2,0-0.2c-0.1-0.1-0.2,0-0.2,0l-4.4,4.6l0,0l-2.6-3l0,0
						l6.5-2.4c0.1,0,0.1-0.1,0.1-0.2c0-0.1-0.1-0.1-0.2-0.1l-6.7,2.4l0,0l-5.7-6.5c-0.1-0.1-0.2-0.1-0.2,0c0,0-0.1,0.1-0.1,0.1
						c0,0,0,0.1,0,0.1l5.7,6.4l0,0l-5.9,2.1l0,0l-0.4-8.3c0-0.1-0.1-0.1-0.2-0.1c0,0-0.1,0-0.1,0.1c0,0,0,0.1,0,0.1l0.4,8.4l0,0
						l-3.5,1.3l0,0l2.9-9.7c0,0,0-0.1,0-0.1c0,0,0-0.1-0.1-0.1c0,0,0,0,0,0c-0.1,0-0.1,0-0.1,0.1l-3,9.9l0,0l-9.4,4.3
						c0,0-0.1,0-0.1,0.1c0,0,0,0.1,0,0.1c0,0.1,0.1,0.1,0.2,0.1l9.3-4.3l0,0l3.1,6.3c0,0,0.1,0.1,0.1,0.1c0,0,0,0,0.1,0
						c0,0,0.1,0,0.1-0.1c0,0,0-0.1,0-0.1l-3.1-6.3l0,0l3.6-1.3l0,0l0.4,7.3c0,0.1,0.1,0.1,0.2,0.1c0,0,0.1,0,0.1-0.1
						c0,0,0-0.1,0-0.1l-0.4-7.4l0,0l6.1-2.2l0,0l2.7,3.1l0,0l-6.8,7.2c0,0,0,0.1,0,0.1c0,0,0,0.1,0,0.1c0,0,0.1,0,0.1,0
						c0,0,0.1,0,0.1-0.1l6.8-7.1l0,0l2.5,2.8c0,0,0.1,0.1,0.1,0.1c0,0,0.1,0,0.1,0c0,0,0-0.1,0.1-0.1c0,0,0-0.1,0-0.1L771.1,252.9z"
						/>
				</g>
				<g>
					<g>
						<path class="st26" d="M762.6,242c0,0.8-0.7,1.5-1.5,1.5c-0.8,0-1.5-0.7-1.5-1.5c0-0.8,0.7-1.5,1.5-1.5
							C762,240.5,762.6,241.2,762.6,242"/>
						<path class="st27" d="M747.6,256.2c-0.9,0-1.6,0.7-1.6,1.6c0,0.9,0.7,1.6,1.6,1.6c0.9,0,1.6-0.7,1.6-1.6
							C749.2,256.9,748.5,256.2,747.6,256.2"/>
						<path class="st28" d="M774.5,255.5c-0.8,0-1.5,0.7-1.5,1.5c0,0.8,0.7,1.5,1.5,1.5c0.8,0,1.5-0.7,1.5-1.5
							C776,256.1,775.3,255.5,774.5,255.5"/>
						<path class="st29" d="M762.1,259.4c-1.5,0-2.7,1.2-2.7,2.6c0,1.5,1.2,2.7,2.7,2.7c1.5,0,2.6-1.2,2.6-2.7
							C764.8,260.6,763.6,259.4,762.1,259.4"/>
						<path class="st30" d="M777.2,243.6c-1.5,0-2.7,1.2-2.7,2.7c0,1.5,1.2,2.6,2.7,2.6c1.5,0,2.7-1.2,2.7-2.6
							C779.9,244.8,778.7,243.6,777.2,243.6"/>
						<path class="st31" d="M757.7,251.8c-0.8,0-1.5,0.7-1.5,1.5c0,0.8,0.7,1.5,1.5,1.5c0.8,0,1.5-0.7,1.5-1.5
							C759.2,252.5,758.5,251.8,757.7,251.8"/>
					</g>
				</g>
			</g>
		</g>
	</g>
	<g>
		<path class="st9" d="M1132.5,275.7h-111.2c-0.7,0-1.2-0.6-1.2-1.2V231c0-0.7,0.6-1.2,1.2-1.2h111.2c0.7,0,1.2,0.6,1.2,1.2v43.5
			C1133.8,275.2,1133.2,275.7,1132.5,275.7z"/>
		<g>
			<g>
				<path class="st32" d="M1050.8,256.1c-0.1,0-0.5-0.3-1.2-0.3c-0.9,0-1.6,0.7-1.6,1.5c0,0.9,0.6,1.5,1.6,1.5
					c0.7,0,1.2-0.3,1.2-0.3v1.6c-0.2,0.1-0.7,0.2-1.3,0.2c-1.6,0-3.1-1.1-3.1-3c0-1.7,1.3-3,3.1-3c0.7,0,1.2,0.2,1.3,0.2V256.1z
					 M1035.6,256.1c-0.1,0-0.5-0.3-1.2-0.3c-0.9,0-1.6,0.7-1.6,1.5c0,0.9,0.6,1.5,1.6,1.5c0.7,0,1.2-0.3,1.2-0.3v1.6
					c-0.2,0.1-0.7,0.2-1.3,0.2c-1.6,0-3.1-1.1-3.1-3c0-1.7,1.3-3,3.1-3c0.7,0,1.2,0.2,1.3,0.2V256.1z M1055.4,255.8
					c0.9,0,1.5,0.7,1.5,1.5c0,0.8-0.6,1.5-1.5,1.5c-0.9,0-1.5-0.7-1.5-1.5C1053.9,256.5,1054.5,255.8,1055.4,255.8 M1058.4,257.3
					c0-1.7-1.3-3-3.1-3s-3.1,1.3-3.1,3c0,1.7,1.3,3,3.1,3S1058.4,259,1058.4,257.3 M1044.5,255.8c0,0-0.6-0.2-1.1-0.2
					c-0.6,0-0.9,0.2-0.9,0.5c0,0.4,0.4,0.5,0.7,0.6l0.4,0.1c0.9,0.3,1.4,0.9,1.4,1.7c0,1.5-1.3,1.9-2.4,1.9c-0.8,0-1.5-0.1-1.6-0.2
					v-1.3c0.1,0,0.7,0.2,1.4,0.2c0.7,0,1.1-0.2,1.1-0.5c0-0.3-0.3-0.5-0.7-0.6c-0.1,0-0.2-0.1-0.3-0.1c-0.8-0.3-1.5-0.7-1.5-1.7
					c0-1.1,0.8-1.8,2.2-1.8c0.7,0,1.4,0.2,1.4,0.2V255.8z M1029.6,249.8c0,0.4-0.3,0.7-0.7,0.7s-0.7-0.3-0.7-0.7v-1.5
					c0-0.4,0.3-0.7,0.7-0.7s0.7,0.3,0.7,0.7V249.8z M1033.6,249.8c0,0.4-0.3,0.7-0.7,0.7c-0.4,0-0.7-0.3-0.7-0.7v-3.5
					c0-0.4,0.3-0.7,0.7-0.7c0.4,0,0.7,0.3,0.7,0.7V249.8z M1037.6,251.2c0,0.4-0.3,0.7-0.7,0.7c-0.4,0-0.7-0.3-0.7-0.7v-7.7
					c0-0.4,0.3-0.7,0.7-0.7c0.4,0,0.7,0.3,0.7,0.7V251.2z M1041.5,249.8c0,0.4-0.3,0.7-0.7,0.7c-0.4,0-0.7-0.3-0.7-0.7v-3.5
					c0-0.4,0.3-0.7,0.7-0.7c0.4,0,0.7,0.3,0.7,0.7V249.8z M1045.5,249.8c0,0.4-0.3,0.7-0.7,0.7c-0.4,0-0.7-0.3-0.7-0.7v-1.5
					c0-0.4,0.3-0.7,0.7-0.7c0.4,0,0.7,0.3,0.7,0.7V249.8z M1049.5,249.8c0,0.4-0.3,0.7-0.7,0.7c-0.4,0-0.7-0.3-0.7-0.7v-3.5
					c0-0.4,0.3-0.7,0.7-0.7c0.4,0,0.7,0.3,0.7,0.7V249.8z M1053.5,251.2c0,0.4-0.3,0.7-0.7,0.7c-0.4,0-0.7-0.3-0.7-0.7v-7.7
					c0-0.4,0.3-0.7,0.7-0.7c0.4,0,0.7,0.3,0.7,0.7V251.2z M1057.4,249.8c0,0.4-0.3,0.7-0.7,0.7c-0.4,0-0.7-0.3-0.7-0.7v-3.5
					c0-0.4,0.3-0.7,0.7-0.7c0.4,0,0.7,0.3,0.7,0.7V249.8z M1061.4,249.8c0,0.4-0.3,0.7-0.7,0.7c-0.4,0-0.7-0.3-0.7-0.7v-1.5
					c0-0.4,0.3-0.7,0.7-0.7c0.4,0,0.7,0.3,0.7,0.7V249.8z M1039,260.2h-1.5v-5.8h1.5V260.2z"/>
			</g>
			<g>
				<path class="st33" d="M1078.1,260l-6.2-6.3v6.3h-1.4v-13.1h1.4v6l5.8-6h1.7l-6.2,6.3l6.8,6.8H1078.1z"/>
				<path class="st33" d="M1081.4,248.6v-1.7h1.5v1.7H1081.4z M1081.5,260v-9.5h1.4v9.5H1081.5z"/>
				<path class="st33" d="M1085.5,260v-9.5h1.1l0.2,1.4c0.7-1.1,1.8-1.7,3-1.7c2,0,3.3,1.3,3.3,3.4v6.3h-1.3v-6.3
					c0-1.5-0.8-2.3-2.3-2.3c-1.3,0-2.6,1-2.6,2.7v5.9H1085.5z"/>
				<path class="st33" d="M1103.8,257.3c-0.5,1.7-1.9,2.9-4.1,2.9c-2.6,0-4.6-1.7-4.6-5c0-3.3,1.9-5,4.4-5c2.5,0,4.4,1.6,4.4,5.3
					h-7.4c0.1,2.4,1.5,3.6,3.2,3.6c1.3,0,2.3-0.7,2.6-1.8H1103.8z M1096.6,254.5h6c-0.1-2.1-1.3-3.1-3-3.1
					C1098,251.3,1096.8,252.4,1096.6,254.5z"/>
				<path class="st33" d="M1107.9,251.7v6.2c0,0.8,0.4,1.2,1.1,1.2c0.3,0,0.6,0,1.1-0.1v1.1c-0.5,0.1-0.8,0.2-1.3,0.2
					c-1.5,0-2.3-0.9-2.3-2.4v-6.2h-1.4v-1.2h1.4l0.1-2.3h1.3v2.3h2.1v1.2H1107.9z"/>
				<path class="st33" d="M1111.7,248.6v-1.7h1.5v1.7H1111.7z M1111.8,260v-9.5h1.4v9.5H1111.8z"/>
				<path class="st33" d="M1123.6,257.1c-0.3,1.8-1.8,3.2-4,3.2c-2.4,0-4.3-1.7-4.3-4.9c0-3.3,1.8-5.1,4.3-5.1c2.1,0,3.7,1.1,4,3
					h-1.5c-0.2-1.2-1.2-1.8-2.4-1.8c-1.7,0-3,1.3-3,4c0,2.6,1.3,3.7,3,3.7c1.3,0,2.3-0.8,2.5-2H1123.6z"/>
			</g>
		</g>
	</g>
	<g>
		<path class="st9" d="M1147.2,794.5H1036c-0.7,0-1.2-0.6-1.2-1.2v-43.5c0-0.7,0.6-1.2,1.2-1.2h111.2c0.7,0,1.2,0.6,1.2,1.2v43.5
			C1148.4,794,1147.8,794.5,1147.2,794.5z"/>
		<g>
			<g>
				<path class="st32" d="M1064.6,774.4c-0.1,0-0.6-0.3-1.3-0.3c-1,0-1.7,0.7-1.7,1.6c0,0.9,0.7,1.6,1.7,1.6c0.7,0,1.2-0.3,1.3-0.3
					v1.6c-0.2,0.1-0.7,0.2-1.4,0.2c-1.7,0-3.3-1.2-3.3-3.2c0-1.8,1.4-3.2,3.3-3.2c0.7,0,1.3,0.2,1.4,0.2V774.4z M1048.4,774.4
					c-0.1,0-0.6-0.3-1.3-0.3c-1,0-1.7,0.7-1.7,1.6c0,0.9,0.7,1.6,1.7,1.6c0.7,0,1.2-0.3,1.3-0.3v1.6c-0.2,0.1-0.7,0.2-1.4,0.2
					c-1.7,0-3.3-1.2-3.3-3.2c0-1.8,1.4-3.2,3.3-3.2c0.7,0,1.3,0.2,1.4,0.2V774.4z M1069.5,774.1c0.9,0,1.6,0.7,1.6,1.6
					c0,0.9-0.7,1.6-1.6,1.6c-0.9,0-1.6-0.7-1.6-1.6C1067.9,774.9,1068.6,774.1,1069.5,774.1 M1072.7,775.8c0-1.8-1.4-3.2-3.2-3.2
					s-3.2,1.4-3.2,3.2c0,1.8,1.4,3.2,3.2,3.2S1072.7,777.5,1072.7,775.8 M1058,774.1c0,0-0.7-0.2-1.2-0.2c-0.6,0-1,0.2-1,0.5
					c0,0.4,0.5,0.5,0.7,0.6l0.4,0.1c1,0.3,1.5,1,1.5,1.8c0,1.5-1.4,2.1-2.5,2.1c-0.8,0-1.6-0.2-1.7-0.2v-1.4c0.1,0,0.8,0.2,1.5,0.2
					c0.8,0,1.1-0.2,1.1-0.6c0-0.3-0.3-0.5-0.7-0.6c-0.1,0-0.2-0.1-0.3-0.1c-0.9-0.3-1.6-0.8-1.6-1.8c0-1.1,0.9-1.9,2.3-1.9
					c0.8,0,1.5,0.2,1.5,0.2V774.1z M1042.1,767.7c0,0.4-0.3,0.8-0.8,0.8c-0.4,0-0.8-0.3-0.8-0.8v-1.6c0-0.4,0.3-0.8,0.8-0.8
					c0.4,0,0.8,0.3,0.8,0.8V767.7z M1046.3,767.7c0,0.4-0.3,0.8-0.8,0.8c-0.4,0-0.8-0.3-0.8-0.8V764c0-0.4,0.3-0.8,0.8-0.8
					c0.4,0,0.8,0.3,0.8,0.8V767.7z M1050.5,769.2c0,0.4-0.3,0.8-0.8,0.8c-0.4,0-0.8-0.3-0.8-0.8v-8.2c0-0.4,0.3-0.8,0.8-0.8
					c0.4,0,0.8,0.3,0.8,0.8V769.2z M1054.8,767.7c0,0.4-0.3,0.8-0.8,0.8c-0.4,0-0.8-0.3-0.8-0.8V764c0-0.4,0.3-0.8,0.8-0.8
					c0.4,0,0.8,0.3,0.8,0.8V767.7z M1059,767.7c0,0.4-0.3,0.8-0.8,0.8c-0.4,0-0.8-0.3-0.8-0.8v-1.6c0-0.4,0.3-0.8,0.8-0.8
					c0.4,0,0.8,0.3,0.8,0.8V767.7z M1063.2,767.7c0,0.4-0.3,0.8-0.8,0.8c-0.4,0-0.8-0.3-0.8-0.8V764c0-0.4,0.3-0.8,0.8-0.8
					c0.4,0,0.8,0.3,0.8,0.8V767.7z M1067.4,769.2c0,0.4-0.3,0.8-0.8,0.8c-0.4,0-0.8-0.3-0.8-0.8v-8.2c0-0.4,0.3-0.8,0.8-0.8
					c0.4,0,0.8,0.3,0.8,0.8V769.2z M1071.7,767.7c0,0.4-0.3,0.8-0.8,0.8c-0.4,0-0.8-0.3-0.8-0.8V764c0-0.4,0.3-0.8,0.8-0.8
					c0.4,0,0.8,0.3,0.8,0.8V767.7z M1075.9,767.7c0,0.4-0.3,0.8-0.8,0.8c-0.4,0-0.8-0.3-0.8-0.8v-1.6c0-0.4,0.3-0.8,0.8-0.8
					c0.4,0,0.8,0.3,0.8,0.8V767.7z M1052.1,778.8h-1.6v-6.1h1.6V778.8z"/>
			</g>
			<text transform="matrix(1 0 0 1 1084.954 778.507)" class="st34 st35 st36">Meraki</text>
		</g>
	</g>
	<path class="st37" d="M61.3,70.1v259.4h292v-60.5h43.9v93.8l-28,28l41.6,146l-18.2,16.6l28.3,68.9l-139.7,68.4l47.1,98.7
		l109.4-50.1l39.5,53.2h246.1L604.8,537.3l88.1-39.5l126.1,287.1l158-39.5v-69.9h104.8v56.2c0,0,117-48.6,205.1-151.9L1267,560
		c0,0,94.2-85.1,129.1-264.3l-744.3,91.1c0,0-6.8-22-34.9-21.2s-32.3,29-32.3,29l-43,4.1L382.4,69.9L61.3,70.1z"/>
	<g>
		<path class="st9" d="M963.4,361.9H848.6c-0.7,0-1.2-0.6-1.2-1.2v-52.9c0-0.7,0.6-1.2,1.2-1.2h114.7c0.7,0,1.2,0.6,1.2,1.2v52.9
			C964.6,361.4,964.1,361.9,963.4,361.9z"/>
		<g>
			<polygon class="st38" points="909.6,316.1 904.5,320.3 900.9,316.1 892.9,316.1 899.8,324.3 897.8,325.9 889.6,316.1 
				881.8,316.1 897.1,334.2 918.6,316.1 			"/>
			<polygon class="st38" points="922.5,316.1 917.8,320.1 921.6,324.5 931.7,316.1 			"/>
			<polygon class="st39" points="916.2,321.5 919.9,325.9 913.6,331.2 923.4,342.9 915.5,342.9 908.9,335.2 902.4,340.6 
				898.7,336.2 			"/>
			<g>
				<path d="M866.7,350.7c0-2-1.3-2.9-2.8-2.9c-1.5,0-2.8,0.9-2.8,2.9c0,2,1.3,2.9,2.8,2.9C865.3,353.6,866.7,352.7,866.7,350.7
					 M865.2,350.7c0,0.7-0.2,1.7-1.3,1.7c-1.1,0-1.3-1-1.3-1.7c0-0.7,0.2-1.7,1.3-1.7C865,349,865.2,350,865.2,350.7"/>
				<path d="M867.2,348h1.4v0.9h0c0.3-0.6,0.6-1.1,1.5-1.1c0.1,0,0.2,0,0.3,0v1.5c-0.1,0-0.3,0-0.4,0c-1.1,0-1.3,0.7-1.3,1.3v2.8
					h-1.4V348z"/>
			</g>
			<rect x="871.1" y="346.1" width="1.4" height="7.4"/>
			<g>
				<path d="M878.5,346.1H877v2.6h0c-0.2-0.3-0.7-0.9-1.6-0.9c-1.2,0-2.3,0.9-2.3,2.8c0,1.5,0.7,2.9,2.3,2.9c0.6,0,1.2-0.2,1.6-0.8
					h0v0.7h1.4V346.1z M874.6,350.7c0-0.9,0.3-1.7,1.2-1.7c1,0,1.2,0.9,1.2,1.8c0,0.8-0.4,1.6-1.3,1.6
					C874.9,352.4,874.6,351.4,874.6,350.7"/>
				<path d="M881.3,346.1h1.6c0.9,4,1,4.5,1.2,5.4h0c0.1-0.8,0.2-1.5,1-5.4h1.6c0.9,4,0.9,4.4,1.1,5.4h0c0.1-0.7,0.2-1.3,1.2-5.4
					h1.6l-2.1,7.4h-1.5c-0.8-3.6-0.9-4.3-1.1-5.7h0c-0.2,1.4-0.3,1.9-1.1,5.7h-1.4L881.3,346.1z"/>
			</g>
			<path d="M892.9,347.3h-1.4V346h1.4V347.3z M892.9,353.4h-1.4V348h1.4V353.4z"/>
			<g>
				<path d="M898.9,346.1h-1.4v2.6h0c-0.2-0.3-0.7-0.9-1.6-0.9c-1.2,0-2.3,0.9-2.3,2.8c0,1.5,0.7,2.9,2.3,2.9c0.6,0,1.2-0.2,1.6-0.8
					h0v0.7h1.4V346.1z M895.1,350.7c0-0.9,0.3-1.7,1.2-1.7c1,0,1.2,0.9,1.2,1.8c0,0.8-0.4,1.6-1.3,1.6
					C895.3,352.4,895.1,351.4,895.1,350.7"/>
				<path d="M903.2,351.8c-0.1,0.4-0.5,0.6-0.9,0.6c-1.2,0-1.2-0.9-1.3-1.3h3.7v-0.3c0-2.5-1.5-3-2.6-3c-2.4,0-2.6,2.1-2.6,2.8
					c0,2.2,1.2,3,2.7,3c0.9,0,2-0.4,2.4-1.7H903.2z M901,350.1c0.1-0.7,0.4-1.1,1.1-1.1c0.5,0,1,0.3,1.1,1.1H901z"/>
			</g>
			<polygon points="910.5,353.4 909,353.4 909,347.4 906.8,347.4 906.8,346.1 912.8,346.1 912.8,347.4 910.5,347.4 			"/>
			<g>
				<path d="M915.7,351.8c-0.1,0.4-0.5,0.6-0.9,0.6c-1.2,0-1.2-0.9-1.3-1.3h3.7v-0.3c0-2.5-1.5-3-2.6-3c-2.4,0-2.6,2.1-2.6,2.8
					c0,2.2,1.2,3,2.7,3c0.9,0,2-0.4,2.4-1.7H915.7z M913.6,350.1c0.1-0.7,0.4-1.1,1.1-1.1c0.5,0,1,0.3,1.1,1.1H913.6z"/>
				<path d="M922.5,351.4c-0.1,0.6-0.5,2.1-2.5,2.1c-2.1,0-2.5-1.6-2.5-2.7c0-1.8,0.8-3,2.6-3c0.9,0,2.3,0.4,2.4,2.1h-1.5
					c-0.1-0.4-0.3-0.9-1-0.9c-0.9,0-1.1,0.9-1.1,1.6c0,0.6,0,1.8,1.1,1.8c0.7,0,1-0.7,1-1H922.5z"/>
				<path d="M928.1,353.4h-1.4v-3.3c0-0.4,0-1.1-0.9-1.1c-0.6,0-1.1,0.4-1.1,1.3v3.1h-1.4v-7.4h1.4v2.6h0c0.2-0.5,0.8-0.9,1.6-0.9
					c1.1,0,1.9,0.6,1.9,1.8V353.4z"/>
				<path d="M933.9,353.4h-1.4v-3.3c0-0.4,0-1.1-0.9-1.1c-0.6,0-1.1,0.4-1.1,1.3v3.1H929V348h1.4v0.8h0c0.2-0.3,0.6-0.9,1.6-0.9
					c1.1,0,1.9,0.6,1.9,1.8V353.4z"/>
				<path d="M940.1,350.7c0-2-1.3-2.9-2.8-2.9c-1.5,0-2.8,0.9-2.8,2.9c0,2,1.3,2.9,2.8,2.9C938.8,353.6,940.1,352.7,940.1,350.7
					 M938.6,350.7c0,0.7-0.2,1.7-1.3,1.7c-1.1,0-1.3-1-1.3-1.7c0-0.7,0.2-1.7,1.3-1.7C938.4,349,938.6,350,938.6,350.7"/>
			</g>
			<rect x="940.7" y="346.1" width="1.4" height="7.4"/>
			<path d="M948.4,350.7c0-2-1.3-2.9-2.8-2.9c-1.5,0-2.8,0.9-2.8,2.9c0,2,1.3,2.9,2.8,2.9C947.1,353.6,948.4,352.7,948.4,350.7
				 M946.9,350.7c0,0.7-0.2,1.7-1.3,1.7c-1.1,0-1.3-1-1.3-1.7c0-0.7,0.2-1.7,1.3-1.7C946.7,349,946.9,350,946.9,350.7"/>
			<path d="M952.8,348v0.8h0c-0.2-0.4-0.6-1-1.6-1c-1.2,0-2.3,0.9-2.3,2.8c0,1.9,1,2.8,2.3,2.8c0.9,0,1.2-0.4,1.5-0.8l0,0v0.7
				c0,0.9-0.4,1.3-1.1,1.3c-0.8,0-0.9-0.3-1-0.6h-1.6c0.1,1.2,1.3,1.6,2.4,1.6c2.7,0,2.8-1.6,2.8-2.5V348H952.8z M950.4,350.7
				c0-1.3,0.6-1.7,1.1-1.7c0.8,0,1.2,0.7,1.2,1.6c0,0.7-0.2,1.6-1.2,1.6C950.7,352.2,950.4,351.4,950.4,350.7"/>
			<path d="M958.3,353.3c-0.7,2-0.9,2.3-2.1,2.3c-0.2,0-0.4,0-0.6,0v-1.1c0.1,0,0.2,0,0.3,0c0.5,0,0.8-0.1,0.9-0.8l-2-5.7h1.6l1.2,4
				h0l1.1-4h1.5L958.3,353.3z"/>
			<path d="M852.2,346.1h1.6c0.9,4,1,4.5,1.2,5.4h0c0.1-0.8,0.2-1.5,1-5.4h1.6c0.9,4,0.9,4.4,1.1,5.4h0c0.1-0.7,0.2-1.3,1.2-5.4h1.6
				l-2.1,7.4H858c-0.8-3.6-0.9-4.3-1.1-5.7h0c-0.2,1.4-0.3,1.9-1.1,5.7h-1.4L852.2,346.1z"/>
		</g>
	</g>
</g>
<g id="Layer_5">
</g>
<g id="Layer_6">
</g>
<g id="Layer_4" class="st40">
	<rect x="-271.3" y="633.5" class="st41" width="1477.1" height="64.8"/>
	<rect x="-270.3" y="480.8" class="st41" width="91.2" height="931.1"/>
	<rect x="254.2" y="480.8" class="st41" width="319.7" height="931.1"/>
	<rect x="1007.9" y="480.8" class="st41" width="319.7" height="931.1"/>
	<rect x="-271.3" y="986.7" class="st41" width="1475" height="64.8"/>
</g>
</svg>
